<?xml version="1.0" standalone="no"?>
<!DOCTYPE svg PUBLIC "-//W3C//DTD SVG 20010904//EN"
 "http://www.w3.org/TR/2001/REC-SVG-20010904/DTD/svg10.dtd">
<svg version="1.0" xmlns="http://www.w3.org/2000/svg"
 width="600.000000pt" height="600.000000pt" viewBox="0 0 600.000000 600.000000"
 preserveAspectRatio="xMidYMid meet">
<metadata>
Created by potrace 1.14, written by Peter Selinger 2001-2017
</metadata>
<g transform="translate(0.000000,600.000000) scale(0.100000,-0.100000)"
fill="#000000" stroke="none">
<path d="M3466 4759 c2 -4 -11 -13 -30 -20 -19 -7 -34 -17 -33 -23 1 -5 -8
-10 -20 -11 -12 0 -25 -4 -30 -9 -5 -5 -3 -6 5 -2 16 9 16 -6 0 -22 -10 -10
-10 -15 2 -23 12 -9 11 -10 -6 -6 -17 3 -20 -1 -20 -25 0 -19 4 -27 12 -24 8
3 11 -1 7 -10 -3 -7 -10 -14 -16 -14 -5 0 -2 -9 7 -19 10 -10 25 -18 34 -16 9
2 21 4 25 4 5 1 6 5 3 9 -2 4 4 8 14 8 12 0 16 -4 10 -11 -5 -6 1 -11 17 -12
19 -1 22 1 12 8 -8 5 -9 9 -4 9 6 0 17 -5 25 -10 9 -6 10 -10 3 -10 -6 0 -11
-8 -10 -18 0 -10 7 -19 14 -19 6 0 10 5 7 11 -3 6 5 0 17 -14 12 -14 20 -18
17 -9 -4 9 -1 16 8 16 8 0 14 -3 14 -7 0 -4 6 -7 13 -7 6 0 21 -4 32 -8 l20
-8 -20 17 c-15 13 -10 12 19 -3 22 -11 43 -18 47 -16 4 3 5 -4 2 -15 -4 -14 0
-20 11 -20 10 0 14 -4 11 -10 -3 -5 -1 -10 4 -10 6 0 10 -3 10 -7 -3 -19 2
-33 11 -33 5 0 7 8 4 18 -5 14 -4 14 4 2 6 -8 8 -18 6 -22 -3 -4 7 -13 22 -18
21 -8 29 -8 36 2 6 11 8 11 8 0 0 -7 5 -10 10 -7 6 3 16 3 23 -2 18 -11 38
-13 31 -2 -3 5 0 9 5 9 6 0 11 -5 11 -11 0 -8 5 -8 15 1 10 9 15 9 15 1 0 -6
5 -11 11 -11 5 0 7 5 4 10 -7 11 30 8 41 -3 12 -12 26 -8 18 5 -4 7 8 1 27
-12 19 -13 28 -17 21 -8 -11 13 -11 18 0 24 7 4 10 4 6 -1 -12 -13 26 -34 55
-31 21 3 25 0 17 -9 -7 -9 -7 -15 -1 -19 5 -4 12 -2 16 3 3 6 12 8 21 4 10 -4
11 -9 4 -17 -7 -9 -4 -12 13 -12 14 1 21 -4 19 -13 -4 -18 18 -62 28 -56 4 2
7 -2 7 -10 0 -8 -3 -12 -7 -10 -3 2 -6 -5 -6 -15 0 -12 6 -17 19 -14 15 2 18
-1 14 -16 -3 -12 0 -17 8 -14 7 3 20 -2 29 -11 9 -9 16 -13 16 -8 0 4 7 -3 16
-16 12 -16 19 -20 27 -12 7 7 21 3 46 -16 19 -15 31 -20 26 -12 -6 10 -5 11 3
4 14 -12 25 -88 12 -80 -4 3 -11 -1 -13 -7 -4 -10 -6 -10 -6 0 -1 10 -4 10
-15 0 -8 -7 -12 -16 -10 -19 2 -3 -3 -6 -11 -6 -8 0 -12 3 -10 7 2 3 -6 7 -18
8 -12 1 -31 4 -42 6 -11 2 -26 -1 -33 -7 -9 -7 -11 -5 -5 9 6 17 5 17 -10 5
-14 -11 -20 -11 -34 0 -11 10 -14 10 -9 2 5 -9 1 -13 -13 -13 -11 0 -22 -4
-26 -9 -3 -6 -23 -9 -45 -8 -22 2 -40 0 -40 -4 0 -3 -14 -5 -31 -3 -22 3 -28
0 -23 -9 5 -8 2 -7 -9 2 -16 13 -22 8 -17 -14 1 -5 -8 -1 -20 10 -17 15 -20
16 -15 3 5 -13 2 -15 -14 -11 -12 3 -27 0 -35 -6 -10 -8 -16 -9 -21 -1 -6 10
1 14 20 10 5 -1 6 2 2 6 -12 13 -37 13 -37 1 0 -7 -5 -4 -11 5 -7 13 -15 15
-34 8 -21 -8 -23 -6 -20 11 3 15 1 18 -8 12 -7 -4 -19 -8 -27 -7 -8 1 -21 2
-28 3 -7 0 -10 6 -6 12 4 7 -1 7 -16 -1 -12 -7 -20 -8 -16 -2 3 5 -1 13 -10
16 -8 3 -12 2 -9 -3 3 -5 1 -13 -5 -16 -6 -4 -9 -1 -8 6 2 6 -3 14 -11 17 -8
2 -11 1 -8 -4 3 -5 -12 -8 -34 -6 -21 2 -37 7 -34 11 2 4 -2 8 -9 8 -7 0 -13
-7 -12 -16 1 -9 -5 -15 -14 -12 -8 2 -20 4 -27 5 -7 1 -15 5 -19 9 -4 3 5 4
20 1 14 -2 26 0 26 4 0 5 -12 8 -27 7 -20 -1 -28 -7 -27 -18 2 -24 -5 -21 -16
6 -6 15 -9 17 -9 6 -1 -13 -9 -16 -38 -13 -21 3 -51 4 -66 4 -16 0 -26 3 -23
8 3 5 -1 9 -8 9 -7 0 -13 -7 -12 -16 1 -10 -5 -14 -14 -12 -8 3 -29 5 -47 5
-22 1 -29 4 -22 12 6 8 4 14 -5 17 -9 4 -18 1 -22 -5 -5 -7 -2 -8 6 -3 9 6 11
4 5 -5 -6 -10 -12 -8 -27 9 -10 13 -18 18 -18 12 0 -6 -5 -11 -11 -11 -6 0 -9
6 -6 13 4 10 -3 13 -24 12 -17 -1 -32 2 -35 6 -2 5 -16 4 -30 -1 -21 -8 -24
-7 -22 7 2 12 -5 17 -27 19 -30 2 -58 -12 -51 -25 7 -11 -58 -8 -66 4 -5 7 -8
7 -8 0 0 -6 -11 -12 -26 -13 -18 -1 -23 2 -18 11 6 9 4 9 -8 -1 -12 -9 -18
-10 -23 -2 -5 8 -11 8 -21 -1 -13 -10 -18 -6 -15 13 0 4 -6 5 -14 2 -8 -4 -15
-11 -15 -18 -1 -6 -7 0 -14 13 -10 18 -15 20 -19 10 -4 -10 -6 -10 -6 -1 -1 6
-6 12 -12 12 -5 0 -7 -5 -3 -12 5 -7 3 -8 -7 -2 -8 4 -20 9 -27 10 -11 2 -11
0 0 -14 8 -10 8 -13 1 -9 -6 4 -23 3 -38 -3 -20 -8 -24 -7 -19 3 6 9 4 9 -7 1
-8 -6 -24 -10 -36 -9 -18 1 -20 -1 -11 -12 9 -11 8 -13 -3 -11 -8 2 -17 8 -21
13 -5 6 -8 5 -8 -4 0 -8 -6 -11 -16 -7 -9 4 -13 2 -8 -5 4 -8 -1 -9 -15 -4
-18 5 -24 2 -28 -15 -4 -17 -8 -19 -15 -8 -8 10 -11 11 -15 0 -4 -10 -8 -10
-21 0 -12 10 -14 10 -8 1 7 -12 -12 -19 -38 -14 -5 1 -3 -6 5 -15 13 -16 12
-16 -8 -5 -16 8 -23 8 -23 1 0 -6 -4 -9 -9 -6 -12 8 -33 -19 -23 -29 4 -5 1
-5 -6 -1 -9 6 -10 11 -3 20 8 9 7 13 -4 13 -8 0 -15 -6 -15 -13 0 -7 -5 -16
-12 -20 -7 -5 -8 -3 -3 7 8 12 6 12 -8 1 -9 -8 -21 -11 -27 -7 -5 3 -10 -2
-10 -12 0 -15 -2 -16 -10 -3 -9 13 -12 13 -24 -2 -10 -14 -15 -15 -26 -5 -8 8
-11 8 -7 1 4 -7 0 -15 -9 -18 -8 -3 -13 -2 -10 2 2 4 -7 7 -22 6 -42 -2 -44
-3 -36 -16 4 -7 4 -10 -1 -6 -4 4 -15 2 -23 -5 -13 -9 -14 -9 -8 1 4 6 2 12
-3 12 -6 0 -11 -5 -11 -11 0 -5 -5 -7 -10 -4 -6 4 -9 1 -8 -7 2 -7 -5 -12 -14
-12 -10 1 -18 -4 -18 -12 0 -8 -3 -13 -7 -13 -20 3 -26 -2 -13 -11 11 -7 5 -8
-20 -4 -26 4 -31 3 -20 -5 14 -10 7 -15 -13 -12 -4 1 -10 -6 -14 -15 -5 -13
-7 -13 -14 -2 -6 9 -9 6 -9 -11 0 -16 -4 -21 -14 -18 -20 8 -28 -4 -13 -21 10
-13 9 -15 -6 -9 -11 4 -25 1 -35 -9 -15 -15 -14 -16 8 -9 22 7 22 6 -7 -21
-19 -18 -30 -38 -28 -51 1 -14 -4 -23 -13 -23 -12 0 -12 -3 -2 -15 11 -13 10
-14 -5 -9 -13 5 -16 4 -11 -4 4 -7 2 -12 -3 -12 -6 0 -11 -7 -11 -16 0 -9 5
-12 11 -8 7 4 1 -7 -12 -25 -12 -17 -27 -31 -32 -31 -5 0 -7 -7 -3 -15 5 -15
-8 -20 -46 -17 -10 1 -18 -3 -18 -9 0 -8 -5 -7 -15 1 -12 10 -15 10 -15 -1 -1
-9 -6 -7 -17 6 -15 20 -15 19 -10 -5 6 -24 5 -24 -8 -6 -14 19 -15 19 -15 1 0
-18 -1 -18 -16 1 -8 10 -13 13 -9 7 9 -19 -13 -16 -23 3 -8 15 -10 15 -15 0
-5 -12 -3 -15 6 -10 6 4 8 3 4 -1 -10 -11 -39 -16 -32 -6 2 4 -10 8 -26 8 -27
0 -30 -3 -26 -23 3 -20 1 -22 -14 -14 -13 8 -17 6 -15 -7 2 -9 8 -19 14 -21 7
-2 12 -11 12 -19 0 -11 6 -14 21 -10 17 5 18 3 8 -9 -7 -8 -8 -14 -3 -13 19 3
37 -1 31 -8 -4 -3 1 -15 10 -25 16 -18 16 -18 -2 -12 -11 5 -16 4 -12 -3 7
-12 -24 -14 -39 -2 -7 5 -11 3 -11 -6 0 -8 5 -11 10 -8 6 3 7 1 3 -6 -6 -9
-11 -9 -22 0 -12 10 -13 9 -7 -7 6 -17 5 -17 -10 -5 -9 7 -17 9 -17 4 0 -13
-60 -11 -60 2 0 7 -3 7 -8 0 -4 -5 -21 -10 -39 -10 -21 0 -28 3 -23 10 6 7 2
11 -10 11 -10 0 -17 -3 -14 -7 2 -4 -2 -12 -9 -18 -16 -13 -15 -44 2 -64 9
-12 9 -17 0 -23 -8 -5 -9 -3 -4 6 5 9 4 11 -4 6 -9 -6 -9 -11 -1 -21 12 -14 9
-17 -39 -42 -31 -17 -31 -17 -32 10 0 21 -1 21 -9 2 -6 -14 -9 -16 -10 -5 -2
8 -2 19 -1 23 1 5 -4 5 -10 1 -7 -4 -19 1 -27 12 -12 16 -14 16 -9 2 3 -10 1
-20 -5 -24 -6 -4 -8 -3 -5 3 4 6 -1 19 -9 29 -9 10 -13 13 -9 7 3 -7 1 -13 -4
-13 -6 0 -11 5 -11 10 0 6 -7 10 -15 10 -8 0 -15 5 -15 11 0 5 5 7 12 3 7 -4
8 -3 4 5 -6 9 -11 9 -22 0 -11 -9 -14 -9 -14 0 0 8 -5 9 -18 2 -14 -7 -19 -6
-19 4 0 8 5 11 11 8 6 -4 5 1 -3 10 -15 18 -26 23 -16 7 3 -5 1 -10 -4 -10 -6
0 -11 5 -11 10 0 6 -7 10 -16 10 -9 0 -12 5 -8 13 5 7 0 6 -11 -3 -11 -9 -16
-10 -11 -2 7 12 0 15 -39 15 -19 -1 -19 -1 0 14 19 15 19 15 -2 8 -15 -4 -23
-2 -23 6 0 8 -5 8 -17 -2 -9 -8 -14 -9 -11 -4 4 6 3 17 -3 25 -7 13 -9 13 -9
1 0 -11 -4 -9 -15 5 -9 12 -14 14 -15 6 0 -7 -5 -10 -11 -7 -6 4 -8 13 -5 21
3 9 0 11 -11 7 -12 -5 -14 -3 -8 8 8 12 6 12 -8 0 -15 -12 -17 -11 -17 3 0 10
-4 14 -10 11 -5 -3 -10 -1 -10 4 0 6 -9 11 -20 11 -11 0 -20 5 -20 11 0 13
-68 42 -80 34 -5 -3 -7 3 -5 15 2 11 1 19 -3 18 -12 -2 -63 14 -58 19 9 10
-48 64 -62 58 -13 -5 -13 -3 -1 12 9 11 10 14 1 9 -7 -4 -22 -4 -33 -1 -17 6
-19 9 -8 16 12 7 12 9 0 9 -8 0 -20 8 -28 18 -10 11 -12 12 -8 2 4 -10 2 -9
-8 2 -8 10 -17 14 -21 10 -4 -4 -7 -2 -6 3 5 22 -1 45 -11 45 -5 0 -7 -4 -4
-10 3 -5 1 -10 -6 -10 -7 0 -9 8 -6 21 3 12 3 19 0 16 -9 -10 -54 37 -48 51 5
12 3 13 -10 2 -13 -11 -16 -11 -13 1 2 8 -2 13 -8 12 -7 -1 -10 7 -8 20 2 12
2 16 -2 10 -9 -20 -23 -15 -19 7 2 11 1 19 -3 19 -22 -4 -31 3 -25 18 4 10 2
14 -4 10 -6 -4 -21 2 -33 13 -13 11 -18 20 -12 20 6 0 14 -4 17 -10 3 -5 11
-10 18 -10 6 0 0 8 -13 17 -14 10 -25 16 -25 14 0 -3 -10 1 -22 7 -18 10 -22
9 -26 -6 -3 -12 -5 -10 -7 8 l-2 25 -7 -25 c-5 -14 -3 -31 3 -39 8 -11 8 -13
0 -8 -6 3 -11 0 -11 -7 0 -8 6 -12 14 -9 9 4 11 0 7 -11 -5 -13 -2 -15 12 -9
17 6 18 5 4 -12 -9 -11 -10 -16 -2 -11 7 4 12 2 12 -4 0 -6 5 -8 13 -4 8 5 8
2 -2 -9 -12 -15 -11 -17 9 -17 19 0 20 -2 10 -15 -11 -13 -10 -14 5 -8 15 5
17 3 12 -11 -4 -9 -3 -15 2 -12 9 6 26 -22 23 -36 -1 -4 5 -5 13 -2 10 4 13 0
10 -16 -4 -19 -2 -20 12 -8 12 9 15 9 9 1 -4 -8 -2 -13 4 -13 6 0 8 -4 5 -10
-3 -5 -1 -10 5 -10 6 0 8 -4 5 -10 -3 -6 1 -7 9 -4 10 4 16 1 16 -9 0 -8 7
-18 16 -21 8 -3 12 -11 8 -17 -4 -7 -3 -10 2 -7 5 3 15 0 22 -8 7 -8 10 -14 7
-14 -3 0 7 -11 22 -24 19 -17 32 -21 40 -15 8 7 10 5 6 -9 -3 -12 2 -22 12
-26 10 -4 14 -2 9 6 -4 7 -3 8 4 4 7 -4 12 -17 13 -29 0 -12 3 -16 6 -9 2 6
10 12 16 12 5 0 8 -3 4 -6 -10 -11 20 -34 47 -36 14 -1 26 -8 26 -16 0 -7 5
-10 10 -7 6 3 10 1 10 -4 0 -6 11 -11 24 -11 13 0 27 -7 30 -16 4 -9 9 -14 13
-11 3 4 12 -1 20 -11 8 -9 11 -11 7 -3 -5 10 -3 12 5 7 7 -5 10 -14 7 -22 -4
-11 -1 -12 12 -5 22 12 51 -8 44 -29 -5 -13 -3 -13 13 0 17 13 18 13 13 -1 -5
-13 -2 -16 13 -12 12 4 19 0 19 -10 0 -8 8 -14 18 -13 9 0 16 -4 15 -11 -2 -7
4 -10 12 -7 8 4 15 1 15 -6 0 -10 3 -10 14 -1 11 10 17 7 29 -10 9 -11 20 -18
26 -15 7 5 8 1 5 -9 -4 -10 -2 -15 7 -13 8 2 13 -3 11 -10 -1 -8 2 -11 8 -7 6
3 7 12 3 18 -5 8 -2 8 9 0 8 -7 18 -10 21 -6 4 3 7 2 7 -3 0 -6 -4 -14 -10
-20 -6 -6 -3 -10 9 -10 11 0 17 4 14 9 -3 5 5 3 18 -3 32 -17 39 -25 14 -17
-20 7 -20 7 -1 -8 22 -17 40 -20 31 -5 -3 6 1 7 9 4 9 -3 13 -10 10 -15 -3 -5
2 -9 10 -9 9 0 16 -5 16 -11 0 -5 5 -7 10 -4 6 3 10 -2 11 -12 0 -16 1 -16 9
2 5 11 9 14 9 7 1 -17 31 -48 31 -32 0 6 5 8 10 5 6 -4 8 -11 5 -16 -3 -5 2
-6 11 -2 12 5 15 3 9 -6 -5 -10 -2 -11 14 -6 17 5 21 2 22 -17 0 -22 1 -22 9
-3 7 16 9 17 9 3 1 -11 8 -15 26 -14 13 2 22 -1 19 -5 -3 -5 0 -9 6 -9 6 0 9
-4 5 -9 -3 -6 4 -8 16 -6 18 4 19 2 7 -12 -12 -15 -11 -15 11 -4 15 8 21 9 17
2 -5 -7 3 -11 19 -11 21 0 26 -4 21 -16 -4 -12 -2 -15 9 -10 8 3 15 0 15 -6 0
-6 6 -5 17 3 11 10 14 10 9 2 -4 -8 -1 -13 8 -13 9 0 16 -7 16 -16 0 -13 3
-14 15 -4 12 10 16 8 25 -14 5 -14 15 -26 22 -26 9 0 8 3 -2 10 -8 5 -10 10
-5 10 17 -1 45 -26 45 -41 0 -11 2 -11 10 1 7 11 10 11 10 2 0 -7 5 -10 11 -6
8 4 9 -1 4 -17 -7 -24 -7 -24 10 -4 9 11 14 16 12 10 -3 -5 7 -19 22 -30 21
-15 23 -16 12 -2 -12 15 -12 17 3 11 15 -6 20 -17 17 -37 -1 -4 8 -3 20 4 15
8 19 8 15 0 -4 -6 0 -11 9 -11 9 0 13 -5 10 -10 -4 -6 -3 -10 2 -9 24 4 53 -2
53 -12 0 -5 -5 -7 -12 -3 -7 4 -8 3 -4 -4 4 -6 14 -8 23 -5 12 5 14 3 8 -8 -8
-12 -6 -12 8 0 12 9 17 10 17 2 0 -7 5 -9 10 -6 6 4 9 3 8 -2 -2 -4 1 -9 5
-10 5 -1 16 -11 26 -22 12 -14 21 -17 28 -10 8 8 13 7 18 -2 6 -8 4 -10 -6 -5
-8 4 -5 0 6 -8 11 -9 25 -14 33 -11 7 2 10 0 7 -5 -3 -6 1 -10 10 -10 10 0 13
-5 9 -12 -4 -7 -4 -10 1 -6 4 4 15 2 23 -5 9 -6 13 -7 9 -1 -3 6 0 11 7 11 8
0 12 -6 9 -14 -3 -7 0 -13 7 -13 6 0 8 -5 4 -13 -5 -8 -2 -8 9 2 11 9 17 10
17 2 0 -6 3 -10 8 -10 24 4 34 -2 24 -14 -9 -10 -5 -13 18 -11 28 2 40 -9 23
-19 -5 -2 -3 -2 4 -1 7 2 15 -1 18 -6 4 -6 15 -10 26 -10 10 0 19 -5 19 -11 0
-5 4 -8 9 -5 5 3 12 -1 15 -10 5 -13 9 -14 22 -3 8 7 14 8 13 3 -4 -23 3 -33
20 -29 11 2 26 -4 33 -13 12 -16 11 -16 -7 -2 -18 14 -19 14 -7 -2 8 -10 20
-14 29 -11 11 4 14 2 9 -5 -5 -8 -2 -10 8 -6 11 4 16 0 16 -12 0 -16 2 -17 10
-4 7 11 10 11 10 2 0 -7 5 -10 10 -7 14 9 12 -8 -2 -25 -7 -8 -3 -6 10 4 19
16 22 17 22 3 0 -11 7 -14 23 -10 18 4 19 3 7 -6 -13 -10 -13 -11 0 -12 8 -1
18 -1 23 0 4 0 7 -3 7 -9 0 -5 8 -10 18 -10 11 0 24 -10 31 -22 6 -13 9 -15 7
-6 -7 22 -4 22 22 -1 12 -10 18 -22 14 -27 -4 -4 2 -2 12 6 17 13 18 13 11 1
-6 -11 -4 -13 10 -7 16 6 16 4 4 -11 -8 -9 -9 -14 -2 -10 6 4 14 3 18 -2 3 -6
12 -8 20 -4 10 3 15 -1 15 -12 0 -9 5 -13 10 -10 6 3 10 2 10 -4 0 -5 9 -8 21
-6 15 3 19 0 15 -10 -3 -8 -2 -15 2 -16 35 -3 58 -12 65 -24 4 -8 15 -15 22
-15 8 0 15 -4 15 -9 0 -5 7 -12 16 -15 15 -6 15 -4 3 11 -12 15 -11 15 8 -1
13 -10 20 -22 18 -26 -3 -5 4 -6 15 -3 15 4 20 0 21 -13 0 -11 3 -14 5 -7 6
13 35 6 46 -11 4 -6 13 -11 20 -11 7 0 13 -5 13 -12 0 -6 3 -15 8 -19 4 -4 7
-2 7 4 0 9 5 9 19 0 11 -7 17 -16 15 -20 -3 -4 4 -8 15 -8 12 0 21 -6 21 -12
0 -8 3 -9 8 -3 11 16 29 15 29 0 0 -8 -4 -12 -8 -9 -4 2 -10 0 -13 -5 -3 -5 7
-7 23 -6 23 2 31 -3 35 -19 5 -18 8 -19 16 -6 9 14 15 7 11 -14 -1 -5 6 -3 15
5 16 13 17 12 12 -9 -5 -19 -4 -21 8 -11 11 9 14 9 14 -1 0 -8 3 -11 6 -7 4 3
13 -1 22 -9 8 -9 23 -13 33 -11 12 3 16 0 12 -10 -4 -10 0 -14 13 -11 12 2 19
-3 18 -13 -1 -9 5 -16 12 -16 7 0 11 4 8 9 -3 4 0 8 5 8 6 0 11 -9 11 -19 0
-15 5 -18 22 -13 14 3 19 2 14 -6 -5 -8 0 -12 13 -12 12 0 21 -6 21 -12 0 -9
4 -8 10 2 6 10 10 11 10 3 0 -7 8 -13 18 -13 14 0 15 -2 2 -10 -12 -8 -10 -10
10 -11 14 -1 29 -1 34 0 5 1 6 -5 3 -13 -4 -9 -1 -18 5 -22 7 -4 8 -3 4 4 -4
7 -2 12 3 12 6 0 11 -5 11 -10 0 -6 3 -9 8 -9 19 3 32 -2 32 -14 0 -8 11 -12
30 -11 24 2 28 -1 21 -10 -14 -17 -1 -29 16 -15 9 9 13 8 13 0 0 -6 9 -11 20
-11 11 0 20 -7 20 -16 0 -8 5 -12 11 -8 6 3 15 1 19 -6 4 -6 19 -13 34 -13 15
-1 29 -9 32 -19 5 -16 30 -24 58 -19 5 1 4 -5 -3 -13 -10 -12 -9 -14 10 -9 15
4 20 3 15 -5 -5 -8 -2 -10 9 -6 8 4 22 1 30 -6 8 -7 15 -9 15 -4 1 5 8 -2 16
-16 8 -14 13 -17 10 -8 -3 12 -1 15 10 11 8 -3 13 -11 10 -18 -3 -8 4 -10 20
-7 14 2 24 0 24 -8 0 -7 8 -9 19 -5 11 3 23 0 27 -6 5 -8 3 -9 -6 -4 -8 5 -11
4 -6 -3 3 -6 20 -9 36 -7 17 2 36 -2 42 -9 11 -11 15 -10 26 3 10 13 12 13 10
1 -2 -9 3 -14 15 -12 9 2 17 -2 17 -8 0 -5 5 -10 11 -10 5 0 7 6 3 13 -4 6 -4
9 1 5 4 -4 13 -3 20 2 8 7 12 5 12 -5 0 -8 -5 -11 -10 -8 -6 4 -7 1 -2 -7 6
-10 11 -9 22 5 12 17 18 14 14 -7 -1 -11 22 -5 31 7 5 6 8 4 8 -5 0 -13 1 -13
10 0 6 9 13 11 18 5 10 -14 83 -16 75 -1 -4 6 0 5 9 -2 13 -10 17 -10 22 0 5
10 7 10 12 1 3 -7 10 -13 15 -13 6 0 7 6 4 13 -4 6 3 1 15 -13 12 -14 19 -19
15 -13 -3 7 -1 13 4 13 6 0 11 -8 11 -17 0 -14 2 -15 9 -5 6 11 10 10 15 -4 6
-16 8 -16 16 -4 7 10 10 11 10 3 0 -7 5 -13 11 -13 5 0 7 4 4 10 -3 6 1 7 9 4
9 -3 13 -11 9 -17 -3 -6 -1 -7 5 -3 7 4 12 1 12 -6 0 -9 3 -9 10 2 8 12 13 13
30 2 22 -14 27 -3 8 17 -10 11 -8 10 10 0 12 -8 22 -17 22 -22 0 -4 5 -5 10
-2 8 5 7 12 -2 22 -12 15 -11 15 9 3 12 -8 20 -18 17 -22 -3 -4 2 -5 10 -2 9
3 13 11 9 17 -3 5 2 16 12 24 11 7 13 13 6 13 -9 0 -8 5 3 16 9 8 16 24 16 35
0 11 4 18 9 14 5 -3 13 4 16 15 5 17 9 19 21 9 12 -10 13 -9 8 6 -6 14 -4 16
7 10 11 -7 11 -5 -1 10 -8 10 -10 16 -3 12 7 -4 14 1 18 13 5 17 9 19 21 9 9
-7 14 -8 12 -3 -1 5 3 19 10 30 6 12 8 24 4 28 -3 4 1 4 11 0 12 -4 17 -1 17
11 0 9 4 14 9 10 5 -3 13 0 17 6 4 8 3 9 -4 5 -7 -4 -12 -1 -12 9 0 9 5 13 10
10 10 -6 14 7 11 33 -1 7 4 11 11 10 6 -2 12 2 13 9 0 16 55 64 65 58 5 -3 12
0 16 6 4 7 3 9 -3 6 -6 -4 -13 0 -16 8 -4 10 -1 12 11 8 9 -3 14 -3 10 2 -4 4
0 14 8 22 10 11 12 19 5 27 -7 9 -7 16 1 24 9 9 9 12 -1 12 -7 0 -9 5 -5 12 5
7 7 25 6 40 -2 20 2 28 14 28 9 0 14 6 11 13 -6 15 14 35 31 29 6 -2 12 2 12
9 0 7 3 9 7 6 3 -4 12 1 20 11 13 15 14 15 9 -8 -3 -14 -3 -19 0 -12 3 6 11 9
16 6 7 -4 8 -2 4 4 -7 12 5 16 32 13 6 -1 12 4 12 11 0 9 3 9 12 0 7 -7 17
-12 23 -12 5 0 4 4 -4 9 -18 12 -5 32 16 24 12 -5 15 -2 10 10 -4 12 -2 14 10
10 11 -4 14 -2 9 5 -4 7 -1 12 8 12 9 0 16 8 16 18 0 26 35 56 57 48 16 -5 15
-4 -1 9 -18 13 -15 20 7 16 4 0 6 2 5 6 -1 5 5 22 15 39 9 17 13 34 10 38 -4
3 2 6 13 6 18 1 18 1 1 14 -16 12 -16 14 -2 20 11 4 14 2 9 -6 -4 -6 -3 -8 4
-5 11 8 11 25 -2 45 -5 9 -1 15 13 19 11 3 18 9 15 15 -3 5 -2 14 3 21 5 7 9
25 8 40 -1 18 3 26 12 23 9 -4 10 1 2 21 -9 24 -8 25 8 12 9 -8 14 -9 10 -2
-8 13 2 45 12 39 3 -2 15 6 26 17 11 11 14 16 6 12 -10 -6 -12 -4 -7 4 5 7 14
10 22 7 8 -3 13 -2 13 2 -3 20 3 30 21 35 11 3 20 11 20 17 0 9 -5 9 -17 -1
-16 -13 -17 -12 -4 4 11 13 17 15 28 6 11 -10 12 -8 7 6 -5 13 -4 16 4 11 11
-6 17 12 13 37 -1 5 3 6 8 2 6 -3 8 -13 5 -23 -5 -15 -5 -15 6 1 6 9 8 22 5
27 -3 6 1 7 9 4 11 -4 16 0 16 10 0 9 5 16 10 16 6 0 10 5 10 11 0 5 -6 7 -12
3 -9 -5 -9 -2 1 9 15 18 26 23 16 7 -3 -5 -1 -10 6 -10 7 0 9 10 7 25 -3 14
-1 25 5 25 5 0 4 7 -3 15 -10 12 -9 15 6 15 12 0 15 3 8 8 -7 4 -10 26 -9 49
2 27 -1 40 -8 36 -6 -3 -7 -1 -3 6 4 7 17 9 29 6 12 -4 17 -3 11 2 -6 4 -11
17 -11 28 0 11 5 23 11 27 8 6 8 8 0 8 -17 0 -10 37 12 61 10 12 14 20 9 16
-6 -3 -17 -2 -25 4 -11 6 -12 9 -2 9 7 0 10 4 7 10 -3 5 0 7 9 4 17 -7 16 17
-2 38 -9 12 -9 15 3 15 8 0 11 -5 8 -10 -3 -6 -1 -7 4 -4 6 4 8 19 5 33 -4 20
-2 25 8 19 9 -6 10 -3 1 13 -8 15 -7 23 3 31 7 6 17 7 21 3 5 -4 5 1 2 10 -4
12 -2 15 9 11 9 -3 14 2 14 17 0 11 4 19 9 16 11 -7 9 13 -3 33 -6 10 -5 12 3
7 12 -8 44 18 34 28 -3 3 5 15 18 27 13 11 18 18 12 14 -7 -3 -13 -1 -13 4 0
6 5 11 11 11 5 0 7 5 3 12 -5 8 -1 9 12 4 15 -6 16 -5 7 5 -9 9 -9 18 3 40 8
16 17 29 20 29 3 0 3 -4 -1 -9 -3 -5 -2 -12 3 -15 4 -2 7 15 7 39 -1 24 2 42
7 39 5 -4 7 -13 4 -21 -3 -8 -2 -12 3 -9 10 7 8 137 -4 155 -5 10 -4 12 3 7 7
-4 12 -2 12 3 0 6 -4 11 -10 11 -15 0 -32 38 -20 45 6 4 10 3 9 -2 -3 -19 2
-33 12 -33 8 0 8 5 -1 15 -7 8 -9 15 -4 15 5 0 -2 9 -16 20 -20 16 -21 19 -5
13 18 -6 18 -5 6 10 -7 9 -17 14 -22 12 -4 -3 -6 4 -4 15 2 12 -1 20 -10 20
-7 0 -16 7 -19 16 -5 14 -4 15 9 4 13 -11 14 -10 9 4 -3 9 -11 16 -18 16 -6 0
-4 5 4 10 8 5 10 10 4 10 -7 0 -10 13 -9 29 2 23 -1 28 -14 23 -13 -5 -14 -3
-4 9 13 16 1 39 -21 39 -5 0 -1 -7 10 -16 18 -15 18 -15 -2 -5 -12 6 -24 8
-27 4 -4 -3 -4 5 -2 17 2 12 2 20 -2 16 -3 -3 -13 0 -21 7 -13 10 -15 9 -8 -3
4 -8 1 -7 -7 3 -8 10 -29 19 -46 20 -17 1 -31 6 -31 11 0 5 -6 3 -14 -3 -9 -8
-16 -8 -20 -2 -4 6 -14 8 -24 5 -14 -5 -14 -4 -2 4 10 8 19 7 30 -1 13 -10 13
-10 2 5 -11 14 -18 15 -45 6 -23 -9 -32 -8 -35 0 -2 7 -8 12 -13 12 -6 0 -7
-6 -3 -12 5 -9 3 -9 -9 1 -9 7 -28 11 -42 9 -13 -3 -22 -2 -20 3 3 4 1 10 -5
14 -5 3 -10 0 -10 -8 0 -10 -7 -13 -20 -10 -11 3 -18 8 -16 12 3 4 -8 7 -24 6
-21 0 -26 -3 -19 -12 7 -8 5 -10 -10 -6 -12 3 -18 9 -15 14 5 9 -10 13 -30 10
-5 -1 -4 5 3 13 10 12 9 14 -8 9 -13 -3 -21 -1 -21 6 0 7 5 9 12 5 7 -4 8 -3
4 5 -4 6 -12 9 -17 5 -6 -3 -13 3 -16 15 -3 12 -13 21 -24 21 -11 0 -19 5 -19
11 0 5 5 7 12 3 7 -4 8 -3 4 4 -4 6 -13 9 -21 5 -10 -3 -15 1 -15 13 0 9 -3
15 -6 11 -10 -10 -33 19 -30 37 1 10 9 22 17 27 11 7 10 9 -5 9 -13 0 -17 5
-13 19 4 15 1 18 -12 13 -14 -5 -14 -4 -1 13 14 17 13 18 -5 9 -11 -5 -27 -9
-36 -9 -21 0 -89 58 -90 76 0 8 -4 5 -9 -6 -8 -18 -9 -18 -9 -2 -1 10 -5 15
-11 12 -5 -3 -10 2 -10 12 0 15 -2 16 -10 3 -9 -13 -10 -13 -10 0 0 9 -3 11
-8 5 -4 -5 -20 -10 -37 -10 -16 0 -36 -4 -44 -10 -11 -7 -13 -7 -7 3 4 7 2 12
-5 12 -6 0 -20 9 -29 20 -12 13 -21 17 -25 10 -9 -15 -25 -2 -18 15 3 8 1 15
-5 15 -6 0 -13 -6 -15 -12 -3 -7 -6 -3 -6 10 -1 20 -20 28 -53 23 -5 0 -8 3
-8 8 0 5 -9 13 -20 16 -11 4 -17 11 -14 17 4 7 2 8 -5 4 -6 -4 -9 -11 -6 -16
3 -5 0 -12 -6 -16 -8 -4 -9 -3 -5 4 3 6 -3 16 -15 22 -16 9 -20 9 -14 1 4 -8
-2 -10 -22 -5 -15 3 -36 6 -45 7 -10 1 -18 5 -18 9 0 4 -5 8 -11 8 -5 0 -7 -5
-3 -12 4 -7 3 -8 -4 -4 -7 4 -12 14 -12 23 0 11 -3 13 -13 5 -14 -12 -52 10
-39 22 4 5 -2 6 -13 4 -11 -1 -19 2 -18 9 1 6 -4 14 -13 17 -10 4 -13 1 -9 -7
4 -6 -1 -3 -9 7 -12 15 -16 16 -16 5 0 -11 -2 -12 -9 -1 -4 8 -12 13 -17 13
-5 -1 -9 4 -9 11 0 6 -8 12 -18 14 -9 1 -15 -2 -12 -6 3 -5 -7 -7 -22 -6 -15
2 -29 8 -31 15 -2 6 -8 11 -13 11 -6 0 -8 -4 -5 -8 3 -5 -1 -9 -9 -9 -8 0 -12
4 -9 9 5 8 -9 12 -40 8 -12 -1 -16 3 -11 10 6 9 2 9 -14 1 -13 -7 -21 -8 -21
-2 0 6 -6 8 -13 5 -8 -3 -20 2 -27 11 -16 19 -30 19 -30 -1 0 -8 -5 -12 -10
-9 -6 4 -8 10 -5 15 3 4 -11 16 -31 25 -24 11 -32 20 -24 25 8 5 7 9 -5 14 -9
3 -21 4 -26 1 -5 -4 -6 1 -3 9 3 9 1 16 -6 16 -6 0 -8 4 -5 10 4 6 -1 7 -11 3
-13 -5 -16 -2 -12 8 4 10 -1 15 -12 15 -10 0 -16 -5 -12 -11 3 -5 -1 -4 -10 3
-13 10 -68 12 -242 10 -124 -2 -226 -6 -226 -10 0 -5 -5 -8 -11 -8 -5 0 -8 4
-5 8 2 4 -4 8 -14 8 -10 0 -17 -4 -14 -7z m652 -124 c-3 -3 -9 2 -12 12 -6 14
-5 15 5 6 7 -7 10 -15 7 -18z m49 -17 c-3 -8 -6 -5 -6 6 -1 11 2 17 5 13 3 -3
4 -12 1 -19z m-812 2 c3 -5 1 -10 -4 -10 -6 0 -11 5 -11 10 0 6 2 10 4 10 3 0
8 -4 11 -10z m8 -57 c-4 -10 -2 -14 5 -9 6 3 13 2 16 -3 4 -5 -1 -8 -9 -7 -20
3 -28 13 -20 25 10 17 15 13 8 -6z m-319 -534 c-2 -4 -12 -6 -22 -5 -9 2 -20
-2 -24 -8 -5 -7 -8 -5 -8 5 0 12 8 16 29 15 16 0 27 -4 25 -7z m1286 -99 c0
-5 -2 -10 -4 -10 -3 0 -8 5 -11 10 -3 6 -1 10 4 10 6 0 11 -4 11 -10z m-3900
-465 c7 -9 8 -15 2 -15 -5 0 -12 7 -16 15 -3 8 -4 15 -2 15 2 0 9 -7 16 -15z
m-129 -22 c13 -16 12 -17 -3 -4 -10 7 -18 15 -18 17 0 8 8 3 21 -13z m2416
-90 c-3 -5 1 -14 9 -21 8 -7 14 -8 14 -3 0 5 9 8 20 6 11 -2 18 0 15 6 -4 5
-1 9 4 9 6 0 11 -5 11 -12 0 -6 3 -8 7 -5 3 4 12 2 19 -4 8 -7 14 -6 20 2 4 8
3 9 -4 5 -7 -4 -12 -2 -12 3 0 6 9 11 21 11 11 0 17 -4 14 -10 -3 -5 1 -10 10
-10 9 0 14 4 11 9 -6 10 12 9 29 0 9 -6 44 -9 130 -10 17 -1 33 -6 37 -13 6
-8 8 -8 8 2 0 6 7 12 15 12 8 0 15 -6 15 -12 0 -9 4 -8 10 2 9 13 10 13 10 0
0 -13 1 -13 10 0 8 12 10 12 10 1 0 -8 3 -11 7 -8 3 4 12 2 20 -5 11 -9 13 -8
11 2 -2 7 3 15 11 18 10 3 11 0 5 -9 -7 -12 -5 -12 9 0 13 10 17 10 17 1 0
-10 4 -10 16 1 13 10 17 10 25 -2 5 -8 9 -9 9 -4 0 6 13 11 29 10 16 0 27 -4
24 -8 -3 -5 -11 -6 -19 -3 -7 3 -16 0 -20 -7 -4 -7 -4 -9 1 -5 4 4 14 3 22 -3
8 -7 13 -8 13 -1 0 5 9 12 20 15 14 4 20 0 20 -11 0 -15 2 -15 10 -2 8 12 10
10 11 -10 0 -14 3 -19 6 -13 3 10 8 9 20 -3 8 -8 20 -13 26 -11 6 2 24 -8 40
-22 16 -14 34 -26 40 -26 7 0 11 -8 11 -18 -1 -9 3 -17 8 -17 6 0 4 -8 -3 -17
-9 -11 -10 -14 -2 -9 9 5 11 2 7 -8 -3 -9 -12 -16 -18 -16 -7 0 -13 -7 -13
-15 0 -12 3 -12 16 -3 12 9 11 7 -1 -8 -21 -24 -23 -38 -5 -29 6 4 3 -1 -7 -9
-15 -12 -16 -16 -5 -17 10 0 10 -2 2 -6 -10 -3 -10 -10 -2 -25 7 -13 7 -18 1
-14 -6 3 -13 2 -17 -4 -3 -5 -1 -10 6 -10 13 0 3 -14 -12 -16 -5 -1 -13 -2
-19 -3 -5 0 -10 -8 -10 -16 0 -13 -18 -20 -43 -16 -10 1 -4 -22 8 -32 6 -5 0
-6 -11 -2 -15 4 -24 0 -28 -10 -4 -10 -2 -14 5 -9 8 5 8 1 0 -13 -6 -11 -7
-24 -3 -29 4 -5 -2 -2 -12 6 -18 14 -19 14 -6 -10 12 -22 11 -24 -2 -13 -12
10 -15 10 -15 -2 0 -8 4 -15 9 -15 5 0 3 -6 -4 -13 -7 -8 -20 -12 -29 -10 -9
3 -23 -5 -32 -17 -9 -14 -20 -19 -28 -15 -7 5 -10 4 -5 -3 3 -6 -3 -16 -14
-22 -18 -10 -19 -14 -8 -28 11 -13 11 -14 -1 -7 -11 6 -13 3 -9 -13 4 -14 2
-19 -7 -16 -8 3 -12 -3 -11 -18 3 -35 -12 -50 -36 -37 -18 10 -19 9 -7 -13 11
-20 11 -22 -3 -10 -13 10 -18 10 -24 1 -5 -8 -3 -9 7 -4 12 8 12 6 0 -8 -8
-10 -16 -15 -19 -12 -9 9 -31 -16 -26 -30 3 -7 0 -16 -7 -21 -8 -5 -10 -3 -4
6 6 9 4 11 -4 5 -9 -5 -9 -11 -3 -17 7 -7 6 -15 -4 -25 -20 -21 -18 -38 4 -22
9 7 4 -2 -13 -20 -16 -18 -24 -31 -16 -29 7 2 16 -3 19 -11 2 -8 0 -11 -6 -7
-6 3 -14 1 -18 -5 -4 -8 -3 -9 4 -5 7 4 12 1 12 -9 0 -10 5 -13 12 -9 7 4 8 3
4 -4 -4 -7 -15 -12 -24 -12 -14 0 -15 -2 -2 -9 8 -6 17 -8 20 -6 10 6 6 -43
-4 -52 -5 -4 -6 -3 -3 3 3 6 -1 11 -10 11 -12 0 -11 -5 7 -19 12 -10 17 -18
11 -18 -6 0 -11 -8 -11 -17 0 -15 2 -16 10 -3 5 8 10 10 10 4 0 -18 -12 -24
-26 -13 -10 8 -12 6 -10 -8 3 -15 -1 -19 -25 -17 -16 1 -32 -3 -36 -9 -4 -6
-1 -7 7 -2 8 5 11 4 6 -3 -4 -6 -13 -9 -21 -5 -8 3 -15 0 -15 -7 0 -6 -5 -8
-11 -4 -8 4 -8 0 0 -15 10 -17 9 -20 -4 -15 -10 4 -13 2 -10 -8 3 -7 -1 -22
-9 -33 -15 -20 -15 -20 -29 -1 -14 19 -32 26 -69 29 -9 1 -15 4 -13 7 2 3 -5
12 -17 19 -11 7 -17 8 -14 2 4 -7 1 -8 -8 -5 -9 3 -12 12 -9 21 4 10 2 14 -5
10 -13 -9 -62 12 -62 27 0 6 -5 4 -10 -4 -8 -13 -10 -12 -10 3 0 10 -4 15 -10
12 -5 -3 -10 2 -11 12 0 10 -3 13 -6 6 -2 -7 -9 -13 -14 -13 -6 0 -8 4 -5 9 3
5 -1 12 -10 15 -10 4 -13 2 -9 -7 4 -6 0 -4 -8 5 -8 10 -17 15 -20 11 -4 -3
-7 -1 -7 6 0 7 -4 9 -10 6 -5 -3 -10 -1 -10 5 0 6 -4 8 -10 5 -5 -3 -10 1 -10
11 0 14 -2 15 -17 3 -14 -12 -16 -12 -8 0 6 11 3 13 -14 8 -19 -5 -21 -3 -9
11 7 9 8 14 4 10 -5 -4 -23 3 -40 15 -33 23 -34 24 -67 26 -13 1 -19 6 -16 14
3 8 -1 14 -9 14 -7 0 -11 -5 -7 -10 3 -5 -4 -4 -17 3 -14 7 -19 17 -16 27 5
13 4 14 -9 3 -11 -9 -15 -9 -15 -1 0 7 -4 10 -9 6 -5 -3 -21 6 -35 20 -14 14
-26 21 -26 15 0 -7 -5 -6 -14 2 -8 7 -11 18 -8 23 3 6 -3 3 -13 -5 -15 -12
-17 -12 -10 -1 6 11 4 13 -8 8 -15 -5 -33 17 -28 36 1 5 -3 6 -9 2 -6 -3 -8
-10 -5 -15 3 -5 0 -12 -6 -16 -8 -4 -9 -3 -5 4 4 7 2 12 -4 12 -6 0 -8 5 -4
12 4 6 3 8 -3 5 -6 -4 -16 0 -23 8 -6 7 -17 12 -25 9 -7 -3 -16 0 -21 7 -5 8
-3 10 6 4 9 -5 11 -4 6 4 -4 6 -12 9 -17 5 -6 -3 -17 2 -25 12 -9 11 -13 13
-9 7 4 -9 1 -11 -9 -7 -9 3 -16 12 -16 19 0 9 -9 12 -25 9 -20 -3 -28 1 -37
21 -7 17 -14 21 -19 14 -4 -6 -12 -8 -18 -5 -6 4 -9 11 -6 16 3 4 -2 11 -11
14 -9 3 -12 2 -8 -5 9 -14 -38 12 -53 31 -11 13 -12 12 -7 -5 5 -19 5 -19 -8
1 -7 12 -19 19 -28 16 -13 -5 -13 -3 0 13 8 11 10 16 3 11 -7 -4 -21 -2 -30 3
-16 9 -15 10 7 11 18 0 21 3 11 9 -17 11 4 25 22 15 9 -6 9 -4 -1 8 -11 13 -6
19 30 37 25 12 32 19 18 16 -24 -6 -24 -5 -5 7 11 7 23 13 28 14 4 1 10 2 13
3 4 0 1 7 -5 15 -10 12 -9 14 7 9 13 -3 21 1 24 15 5 17 16 21 61 23 9 0 17 6
17 14 0 8 5 17 12 21 7 4 8 3 4 -4 -4 -7 -1 -12 9 -12 9 0 13 5 10 10 -3 6 1
10 10 10 11 0 15 5 11 15 -3 8 0 14 7 12 7 -1 11 4 9 12 -3 12 0 12 13 1 13
-11 14 -10 9 5 -6 14 -4 16 6 10 10 -6 12 -4 7 7 -3 10 0 15 11 14 10 0 16 6
16 16 -1 10 3 16 10 15 6 -1 10 4 8 12 -3 12 -1 12 15 1 10 -8 15 -11 11 -6
-4 5 -1 15 7 22 7 8 16 19 18 26 4 10 8 9 16 -2 6 -8 11 -10 11 -5 0 6 -6 17
-12 24 -7 7 -8 12 -3 11 25 -5 34 1 28 18 -6 15 -5 15 10 3 15 -12 17 -12 11
3 -4 11 -1 16 11 16 10 0 13 5 9 12 -5 8 -2 9 11 4 15 -5 16 -4 6 8 -11 13 -9
15 9 11 18 -3 20 -2 10 10 -8 10 -8 15 1 21 7 4 9 3 5 -4 -9 -15 14 -20 47
-11 20 6 27 4 27 -7 0 -8 4 -14 10 -14 5 0 7 7 3 16 -5 14 -3 15 12 7 11 -6
30 -7 46 -3 20 6 26 5 23 -4 -3 -7 4 -12 15 -12 15 0 17 3 9 13 -8 10 -7 12 6
7 9 -3 16 -9 16 -13 0 -4 11 -7 24 -7 14 0 22 4 20 8 -3 5 -9 6 -14 3 -5 -3
-11 -1 -14 4 -4 5 6 7 23 5 25 -4 31 0 42 25 9 21 16 26 22 18 6 -8 7 -4 4 9
-5 26 30 50 62 41 12 -3 24 0 28 5 3 6 1 8 -5 4 -6 -3 -14 -1 -18 5 -4 7 -3 9
4 5 6 -3 13 -2 17 4 3 5 8 10 11 10 3 0 3 -3 1 -7z m37 -1 c3 -5 -1 -9 -9 -9
-8 0 -12 4 -9 9 3 4 7 8 9 8 2 0 6 -4 9 -8z m-164 -86 c0 -2 -8 -10 -17 -17
-16 -13 -17 -12 -4 4 13 16 21 21 21 13z m921 -33 c13 -16 12 -17 -3 -4 -17
13 -22 21 -14 21 2 0 10 -8 17 -17z m-2287 -71 c3 -5 -1 -9 -9 -9 -8 0 -12 4
-9 9 3 4 7 8 9 8 2 0 6 -4 9 -8z m2101 -392 c-3 -5 -11 -10 -16 -10 -6 0 -7 5
-4 10 3 6 11 10 16 10 6 0 7 -4 4 -10z m1634 -83 c9 16 10 14 11 -11 0 -25 2
-27 17 -15 15 13 15 12 6 -6 -6 -11 -9 -28 -8 -38 2 -10 -1 -14 -7 -10 -7 4
-9 -1 -6 -15 3 -12 3 -21 -1 -20 -20 2 -29 -4 -27 -19 0 -11 -6 -17 -16 -17
-14 1 -15 -2 -8 -17 11 -19 -2 -35 -19 -25 -5 3 -7 -8 -6 -24 2 -19 -1 -27 -8
-23 -6 4 -8 0 -4 -10 4 -10 2 -16 -5 -14 -7 1 -13 -2 -13 -8 -4 -26 -28 -72
-48 -88 -12 -10 -16 -15 -8 -11 11 6 13 3 7 -12 -5 -10 -10 -30 -12 -44 -1
-13 -8 -26 -14 -28 -7 -3 -7 -9 2 -20 11 -13 10 -14 -8 -4 -19 10 -21 9 -17
-12 3 -13 0 -27 -6 -30 -7 -5 -9 0 -5 11 3 10 -1 7 -9 -6 -11 -18 -16 -20 -20
-10 -4 10 -6 9 -6 -4 -1 -10 -5 -15 -11 -12 -5 3 -10 2 -10 -4 0 -5 5 -13 11
-16 7 -5 3 -14 -10 -27 -12 -10 -19 -23 -16 -29 4 -5 1 -9 -5 -9 -6 0 -8 -4
-5 -10 3 -5 -2 -10 -12 -10 -14 0 -15 -2 -5 -9 11 -7 11 -9 -2 -14 -9 -4 -16
-14 -16 -22 0 -9 -4 -14 -9 -11 -5 3 -12 -1 -15 -10 -3 -8 -2 -12 4 -9 6 3 10
1 10 -4 0 -11 -15 -15 -34 -12 -5 1 -3 -5 4 -14 11 -14 11 -16 -1 -13 -9 2
-13 -4 -11 -15 2 -12 -4 -21 -18 -24 -17 -4 -18 -8 -8 -14 10 -7 7 -11 -10
-15 -14 -4 -21 -12 -18 -20 3 -8 1 -14 -4 -14 -5 0 -13 -12 -16 -27 -4 -16
-12 -31 -18 -35 -8 -6 -8 -8 0 -8 9 0 11 -31 4 -50 -6 -14 -5 -37 3 -54 8 -16
6 -18 -9 -12 -15 6 -16 5 -7 -5 10 -10 9 -15 -5 -26 -9 -7 -12 -13 -7 -12 21
3 25 -2 13 -15 -7 -8 -16 -12 -20 -9 -15 8 -8 -5 9 -18 10 -8 14 -9 10 -2 -4
6 -4 14 1 17 4 2 8 -6 8 -19 0 -15 -5 -21 -13 -18 -7 3 -13 0 -13 -6 0 -6 6
-11 13 -11 8 0 7 -4 -3 -10 -12 -8 -12 -10 5 -10 18 -1 18 -2 -2 -10 -26 -11
-28 -16 -11 -26 7 -5 8 -2 3 7 -5 8 -5 11 -1 7 9 -8 9 -18 -1 -19 -5 -1 -16
-5 -27 -11 -14 -8 -17 -7 -10 4 6 11 5 11 -8 0 -12 -9 -18 -10 -23 -2 -4 6
-12 7 -18 2 -11 -7 -29 -8 -42 -2 -3 1 -9 3 -14 4 -5 0 -13 4 -17 9 -4 4 -16
7 -26 7 -12 0 -16 4 -12 12 4 7 3 8 -5 4 -7 -5 -23 -9 -37 -11 -18 -2 -22 1
-14 10 13 15 -11 28 -35 19 -8 -4 -15 -1 -15 5 0 6 -5 11 -11 11 -5 0 -7 -6
-3 -12 6 -10 5 -10 -8 -1 -8 7 -18 10 -21 6 -4 -3 -15 1 -24 9 -10 9 -26 14
-36 13 -9 -2 -15 1 -12 5 9 15 -34 31 -65 26 -17 -2 -28 0 -24 5 3 5 10 6 16
3 7 -4 8 -2 4 4 -4 6 -14 8 -23 5 -13 -5 -15 -2 -10 11 5 12 3 15 -6 9 -6 -4
-18 -8 -25 -9 -10 -2 -11 1 -1 12 14 17 -2 19 -20 2 -11 -10 -13 -10 -7 0 4 6
2 12 -5 12 -6 0 -18 8 -26 18 -8 9 -12 12 -9 6 3 -6 -1 -11 -9 -11 -8 0 -12 4
-9 8 7 12 -32 30 -53 23 -15 -5 -15 -4 -3 5 11 8 12 11 2 11 -7 0 -10 5 -6 11
4 7 -1 7 -16 -1 -15 -8 -20 -8 -16 -1 4 6 0 11 -9 11 -10 0 -13 5 -9 13 5 7 0
6 -11 -3 -10 -8 -16 -10 -12 -4 4 7 -5 17 -23 24 -18 7 -27 17 -23 24 4 6 -1
5 -10 -3 -16 -12 -18 -12 -16 5 1 8 -23 24 -36 24 -5 0 -3 -5 5 -10 8 -5 10
-10 4 -10 -16 0 -35 25 -27 34 4 4 0 4 -10 0 -9 -3 -14 -11 -10 -17 3 -6 1 -7
-6 -3 -7 4 -9 17 -6 29 5 18 4 19 -5 7 -9 -11 -13 -12 -17 -2 -2 6 -11 12 -19
12 -8 0 -14 5 -14 11 0 5 -4 8 -9 4 -5 -3 -16 2 -24 10 -18 18 -31 20 -21 3 4
-7 3 -8 -4 -4 -6 4 -8 14 -5 23 4 10 2 14 -5 9 -18 -11 -25 14 -8 33 9 10 16
23 16 30 0 7 4 10 9 6 6 -3 8 4 6 15 -2 11 0 20 6 20 5 0 8 3 8 8 -4 21 3 31
16 26 8 -4 15 -1 15 6 0 10 3 10 15 0 12 -10 15 -10 15 0 0 10 3 10 15 0 11
-9 15 -9 15 -1 0 8 5 9 19 2 10 -6 22 -7 26 -3 5 4 5 -1 2 -11 -4 -11 -3 -16
3 -12 6 3 10 1 10 -5 0 -6 5 -8 11 -5 6 4 8 14 5 22 -5 11 -2 14 11 9 15 -5
15 -4 -1 9 -12 9 -15 15 -7 15 10 0 9 7 -4 26 -9 15 -13 24 -7 20 5 -3 12 3
15 15 4 16 3 18 -9 8 -9 -7 -14 -8 -14 -1 0 6 5 14 10 17 15 9 12 27 -2 19
-10 -6 -10 -4 0 7 6 7 12 17 12 22 0 4 -6 5 -12 1 -10 -6 -10 -4 0 7 6 7 12
21 12 30 0 22 29 33 48 17 14 -12 14 -10 2 12 -12 23 -12 24 3 11 14 -11 18
-11 23 3 3 9 11 13 16 10 6 -4 9 -1 6 7 -3 8 2 20 11 27 14 12 14 13 -4 8
l-20 -6 20 16 c11 8 19 20 17 26 -1 5 2 16 8 22 5 7 6 17 2 22 -4 4 0 3 9 -4
14 -10 18 -10 23 4 4 9 9 14 13 11 3 -4 12 1 20 11 10 11 12 12 8 2 -4 -8 1
-6 10 5 9 11 21 19 26 17 6 -1 5 6 -1 18 -7 13 -7 20 -1 20 6 0 8 6 6 13 -7
17 54 80 71 73 9 -3 14 1 14 12 0 14 2 15 9 3 8 -12 11 -9 16 12 4 15 11 27
17 27 5 0 6 -5 2 -12 -4 -7 -3 -8 5 -4 6 4 9 18 7 32 -3 14 -1 22 5 19 5 -4 9
1 9 10 0 9 5 13 10 10 6 -3 10 -1 10 4 0 22 18 10 30 -19 7 -16 16 -27 20 -25
5 3 11 1 15 -5 4 -6 10 -8 15 -5 5 3 12 0 16 -6 4 -7 3 -9 -3 -6 -5 3 -10 0
-10 -8 0 -10 5 -11 17 -5 19 10 30 4 26 -13 -2 -7 -1 -9 1 -4 3 4 17 7 31 7
21 0 24 -2 12 -10 -17 -11 -10 -13 14 -4 9 3 14 10 11 14 -3 5 3 7 12 5 10 -2
22 -4 27 -4 5 -1 6 -4 3 -8 -4 -3 -2 -12 4 -20 9 -10 8 -13 -1 -13 -6 0 -10
-6 -7 -12 7 -19 -12 -50 -26 -42 -9 5 -9 4 0 -6 10 -11 10 -17 0 -29 -8 -10
-8 -13 0 -8 6 4 14 1 16 -5 4 -10 7 -10 15 0 5 8 13 14 18 14 5 0 8 4 6 9 -1
5 2 9 8 9 6 0 10 7 10 16 0 9 5 12 12 8 7 -5 8 -3 3 6 -6 10 -11 9 -22 -5 -7
-11 -13 -14 -13 -9 0 6 4 14 9 19 6 6 11 22 13 37 2 15 8 31 13 35 4 5 5 1 0
-7 -4 -8 2 -5 14 8 24 24 36 29 26 10 -4 -7 1 -4 9 6 13 16 16 16 16 5 0 -9 7
-16 15 -16 8 0 12 4 9 9 -3 4 0 8 6 8 6 0 8 6 5 13 -4 6 2 2 13 -10 18 -20 20
-21 36 -5 15 15 16 15 11 1 -6 -17 19 -20 42 -6 6 4 14 3 18 -2 3 -5 14 -9 25
-8 10 1 16 5 14 9 -8 13 11 9 25 -4 11 -10 13 -10 7 0 -8 13 10 17 18 4 6 -10
36 -9 54 2 7 4 12 2 12 -6 1 -7 7 -2 15 12 9 15 14 19 15 10 0 -13 1 -13 10 0
5 8 10 11 10 6 0 -5 9 -1 20 9 11 10 17 23 13 29 -4 6 0 5 9 -2 13 -10 18 -10
24 -1 4 8 3 9 -4 5 -7 -4 -12 -2 -12 3 0 6 5 11 11 11 5 0 7 4 4 10 -4 7 2 7
19 0 14 -5 25 -6 25 -2 -3 19 2 26 10 13 13 -20 41 -23 34 -4 -5 12 -7 12 -14
1 -5 -7 -9 -8 -9 -2 0 20 13 24 31 8 16 -14 18 -14 28 3z m-169 -61 c0 -3 -4
-8 -10 -11 -5 -3 -10 -1 -10 4 0 6 5 11 10 11 6 0 10 -2 10 -4z m-2345 -275
c3 -5 2 -12 -3 -15 -5 -3 -9 1 -9 9 0 17 3 19 12 6z m449 -239 c3 -5 -1 -9 -9
-9 -8 0 -12 4 -9 9 3 4 7 8 9 8 2 0 6 -4 9 -8z m1140 -570 c3 -5 -1 -9 -9 -9
-8 0 -12 4 -9 9 3 4 7 8 9 8 2 0 6 -4 9 -8z"/>
<path d="M2635 3309 c-4 -6 -5 -12 -2 -15 2 -3 7 2 10 11 7 17 1 20 -8 4z"/>
<path d="M4260 2500 c-9 -6 -10 -10 -3 -10 6 0 15 5 18 10 8 12 4 12 -15 0z"/>
<path d="M3886 2491 c-4 -5 -2 -12 3 -15 5 -4 12 -2 15 3 4 5 2 12 -3 15 -5 4
-12 2 -15 -3z"/>
<path d="M4823 2365 c0 -8 4 -12 9 -9 5 3 6 10 3 15 -9 13 -12 11 -12 -6z"/>
<path d="M3410 1879 c0 -5 5 -7 10 -4 6 3 10 8 10 11 0 2 -4 4 -10 4 -5 0 -10
-5 -10 -11z"/>
<path d="M4106 1518 c3 -4 9 -8 15 -8 5 0 9 4 9 8 0 5 -7 9 -15 9 -8 0 -12 -4
-9 -9z"/>
<path d="M4650 4496 c0 -2 8 -10 18 -17 15 -13 16 -12 3 4 -13 16 -21 21 -21
13z"/>
<path d="M5160 4286 c0 -2 8 -10 18 -17 15 -13 16 -12 3 4 -13 16 -21 21 -21
13z"/>
<path d="M5266 4158 c3 -5 10 -6 15 -3 13 9 11 12 -6 12 -8 0 -12 -4 -9 -9z"/>
<path d="M4330 4062 c0 -4 10 -13 23 -21 22 -14 22 -14 3 8 -20 22 -26 25 -26
13z"/>
<path d="M2635 4040 c-3 -5 -1 -10 4 -10 6 0 11 5 11 10 0 6 -2 10 -4 10 -3 0
-8 -4 -11 -10z"/>
<path d="M3264 3978 c-4 -7 -2 -8 4 -4 6 4 21 2 32 -4 15 -8 18 -8 15 3 -7 16
-42 20 -51 5z"/>
<path d="M3415 3980 c-2 -3 5 -7 16 -7 10 -1 19 2 19 6 0 9 -29 10 -35 1z"/>
<path d="M620 3220 c0 -5 5 -10 11 -10 5 0 7 5 4 10 -3 6 -8 10 -11 10 -2 0
-4 -4 -4 -10z"/>
<path d="M5806 3141 c-3 -5 1 -11 9 -14 9 -4 12 -1 8 9 -6 16 -10 17 -17 5z"/>
<path d="M796 3127 c3 -10 9 -15 12 -12 3 3 0 11 -7 18 -10 9 -11 8 -5 -6z"/>
<path d="M5330 2055 c-7 -9 -10 -18 -7 -21 3 -3 10 4 17 15 13 25 8 27 -10 6z"/>
<path d="M2875 1950 c3 -5 8 -10 11 -10 2 0 4 5 4 10 0 6 -5 10 -11 10 -5 0
-7 -4 -4 -10z"/>
<path d="M5056 1847 c3 -10 9 -15 12 -12 3 3 0 11 -7 18 -10 9 -11 8 -5 -6z"/>
<path d="M4715 1280 c3 -5 8 -10 11 -10 2 0 4 5 4 10 0 6 -5 10 -11 10 -5 0
-7 -4 -4 -10z"/>
</g>
</svg>
